<svg width="382" height="78" viewBox="0 0 382 78" fill="none" xmlns="http://www.w3.org/2000/svg">
<g filter="url(#filter0_bd_1131_1876)">
<path d="M4 15C4 6.71573 10.7157 0 19 0H363C371.284 0 378 6.71573 378 15V55C378 63.2843 371.284 70 363 70H19C10.7157 70 4 63.2843 4 55V15Z" fill="#333333" fill-opacity="0.84" shape-rendering="crispEdges"/>
</g>
<g filter="url(#filter1_d_1131_1876)">
<circle cx="46.5" cy="35.5" r="22.5" fill="#2D2D2D"/>
<circle cx="46.5" cy="35.5" r="22" stroke="#5E5E5E"/>
</g>
<path fill-rule="evenodd" clip-rule="evenodd" d="M232.997 33.3035H236.3H241.7H245.003L243.869 40.6426C243.806 41.0838 243.428 41.408 242.987 41.408H235.013C234.572 41.408 234.194 41.0838 234.131 40.6426L232.997 33.3035ZM242.6 30.602V31.5025H245.003H247.1C247.595 31.5025 248 31.9077 248 32.403C248 32.8983 247.595 33.3035 247.1 33.3035H246.803C246.803 33.3936 246.794 33.4836 246.785 33.5736L245.651 40.9127C245.453 42.2275 244.319 43.2 242.987 43.2H235.013C233.681 43.2 232.547 42.2275 232.349 40.9127L231.215 33.5736C231.206 33.4836 231.197 33.3936 231.197 33.3035H230.9C230.405 33.3035 230 32.8983 230 32.403C230 31.9077 230.405 31.5025 230.9 31.5025H232.997H235.4V30.602C235.4 28.6119 237.011 27 239 27C240.989 27 242.6 28.6119 242.6 30.602ZM237.2 30.602V31.5025H240.8V30.602C240.8 29.6024 239.99 28.801 239 28.801C238.01 28.801 237.2 29.6115 237.2 30.602ZM239 39.607C238.505 39.607 238.1 39.2018 238.1 38.7065V36.005C238.1 35.5097 238.505 35.1045 239 35.1045C239.495 35.1045 239.9 35.5097 239.9 36.005V38.7065C239.9 39.2018 239.495 39.607 239 39.607ZM235.4 38.7065C235.4 39.2018 235.805 39.607 236.3 39.607C236.795 39.607 237.2 39.2018 237.2 38.7065V36.005C237.2 35.5097 236.795 35.1045 236.3 35.1045C235.805 35.1045 235.4 35.5097 235.4 36.005V38.7065ZM240.8 38.7065C240.8 39.2018 241.205 39.607 241.7 39.607C242.195 39.607 242.6 39.2018 242.6 38.7065V36.005C242.6 35.5097 242.195 35.1045 241.7 35.1045C241.205 35.1045 240.8 35.5097 240.8 36.005V38.7065Z" fill="white"/>
<path fill-rule="evenodd" clip-rule="evenodd" d="M45.6667 42.9992C45.6667 43.9863 44.8667 44.7778 43.8889 44.7778H41.6667C40.1556 44.7778 39 43.5861 39 42.1098V34.5952C39 33.8482 39.3556 33.1279 39.8889 32.6299L45.2222 27.7031C46.2 26.796 47.7111 26.7606 48.7778 27.6321L54.0217 32.1407C54.6439 32.6476 55 33.3947 55 34.1773V42.1098C55 43.5861 53.8444 44.7778 52.3333 44.7778H50.1111C49.1333 44.7778 48.3333 43.9774 48.3333 42.9992V38.5793H45.6667V42.9992ZM47.6224 28.9838C47.2668 28.6904 46.7328 28.708 46.4661 29.0103L41.0443 33.9371C40.8665 34.1061 40.7778 34.3462 40.7778 34.5952V42.1098C40.7778 42.599 41.1333 42.9992 41.6667 42.9992H43.8889V37.69C43.8889 37.2009 44.2444 36.8007 44.7778 36.8007H49.2222C49.7556 36.8007 50.1111 37.2009 50.1111 37.69V42.9992H52.3333C52.8667 42.9992 53.2222 42.599 53.2222 42.1098V34.1773C53.2222 33.9194 53.133 33.6704 52.8663 33.5014L47.6224 28.9838Z" fill="white"/>
<path fill-rule="evenodd" clip-rule="evenodd" d="M183.1 31.9016C183.1 30.5513 182.011 29.4441 180.634 29.336L180.058 27.7427C179.563 26.3564 177.952 25.6452 176.521 26.1763L167.926 29.39C167.836 29.426 167.755 29.4621 167.692 29.5161C166.702 29.8942 166 30.8214 166 31.9016V39.6254C166 41.0477 167.206 42.2 168.7 42.2H180.4C181.894 42.2 183.1 41.0477 183.1 39.6254V37.6809C183.64 37.3839 184 36.8257 184 36.1956V34.4762C184 33.8371 183.64 33.2879 183.1 32.9909V31.9016ZM181.3 32.7568V31.9016C181.3 31.4245 180.895 31.0464 180.4 31.0464H168.7C168.205 31.0464 167.8 31.4335 167.8 31.9016V39.6254C167.8 40.1025 168.205 40.4806 168.7 40.4806H180.4C180.895 40.4806 181.3 40.0935 181.3 39.6254V37.906H180.4C178.906 37.906 177.7 36.7537 177.7 35.3314C177.7 33.9091 178.906 32.7568 180.4 32.7568H181.3ZM178.357 28.2918L178.726 29.318H173.02L177.178 27.7697C177.655 27.5986 178.195 27.8327 178.357 28.2918ZM179.5 35.3314C179.5 34.8543 179.905 34.4762 180.4 34.4762H182.2V36.1956H180.4C179.905 36.1956 179.5 35.8085 179.5 35.3314Z" fill="white"/>
<path fill-rule="evenodd" clip-rule="evenodd" d="M110.5 45C105.256 45 101 40.744 101 35.5C101 30.256 105.256 26 110.5 26C115.744 26 120 30.256 120 35.5C120 40.744 115.744 45 110.5 45ZM110.5 27.9C106.301 27.9 102.9 31.301 102.9 35.5C102.9 37.5425 103.698 39.3855 105.009 40.7535C105.37 39.5755 106.178 38.597 107.232 37.9985C106.32 37.134 105.75 35.9085 105.75 34.55C105.75 31.928 107.878 29.8 110.5 29.8C113.122 29.8 115.25 31.928 115.25 34.55C115.25 35.9085 114.68 37.134 113.768 37.9985C114.822 38.5875 115.63 39.5755 115.991 40.7535C117.302 39.3855 118.1 37.5425 118.1 35.5C118.1 31.301 114.699 27.9 110.5 27.9ZM114.3 42.0835C114.262 40.5445 112.998 39.3 111.45 39.3H110.5H109.55C108.001 39.3 106.738 40.5445 106.7 42.0835C107.821 42.7295 109.113 43.1 110.5 43.1C111.887 43.1 113.179 42.7295 114.3 42.0835ZM110.5 37.4C112.077 37.4 113.35 36.127 113.35 34.55C113.35 32.973 112.077 31.7 110.5 31.7C108.923 31.7 107.65 32.973 107.65 34.55C107.65 36.127 108.923 37.4 110.5 37.4Z" fill="white"/>
<path d="M302.707 40.4294V39.4294C302.441 39.4294 302.187 39.5347 301.999 39.7222L302.707 40.4294ZM298.011 45.125H297.011C297.011 45.5295 297.255 45.8941 297.628 46.0489C298.002 46.2037 298.432 46.1181 298.718 45.8321L298.011 45.125ZM298.011 40.4294H299.011C299.011 39.8771 298.563 39.4294 298.011 39.4294V40.4294ZM301.875 28.125C302.427 28.125 302.875 27.6773 302.875 27.125C302.875 26.5727 302.427 26.125 301.875 26.125V28.125ZM313 35.5625C313 35.0102 312.552 34.5625 312 34.5625C311.448 34.5625 311 35.0102 311 35.5625H313ZM301.999 39.7222L297.304 44.4179L298.718 45.8321L303.414 41.1365L301.999 39.7222ZM299.011 45.125V40.4294H297.011V45.125H299.011ZM298.011 39.4294H296.25V41.4294H298.011V39.4294ZM295 38.1794V29.375H293V38.1794H295ZM309.75 39.4294H302.707V41.4294H309.75V39.4294ZM296.25 28.125H301.875V26.125H296.25V28.125ZM311 35.5625V38.1794H313V35.5625H311ZM309.75 41.4294C311.545 41.4294 313 39.9743 313 38.1794H311C311 38.8697 310.44 39.4294 309.75 39.4294V41.4294ZM295 29.375C295 28.6846 295.56 28.125 296.25 28.125V26.125C294.455 26.125 293 27.5801 293 29.375H295ZM296.25 39.4294C295.56 39.4294 295 38.8697 295 38.1794H293C293 39.9743 294.455 41.4294 296.25 41.4294V39.4294ZM311 29.375C311 30.6867 309.937 31.75 308.625 31.75V33.75C311.041 33.75 313 31.7912 313 29.375H311ZM308.625 31.75C307.313 31.75 306.25 30.6867 306.25 29.375H304.25C304.25 31.7912 306.209 33.75 308.625 33.75V31.75ZM306.25 29.375C306.25 28.0633 307.313 27 308.625 27V25C306.209 25 304.25 26.9588 304.25 29.375H306.25ZM308.625 27C309.937 27 311 28.0633 311 29.375H313C313 26.9588 311.041 25 308.625 25V27Z" fill="white"/>
<defs>
<filter id="filter0_bd_1131_1876" x="-11" y="-15" width="404" height="100" filterUnits="userSpaceOnUse" color-interpolation-filters="sRGB">
<feFlood flood-opacity="0" result="BackgroundImageFix"/>
<feGaussianBlur in="BackgroundImageFix" stdDeviation="7.5"/>
<feComposite in2="SourceAlpha" operator="in" result="effect1_backgroundBlur_1131_1876"/>
<feColorMatrix in="SourceAlpha" type="matrix" values="0 0 0 0 0 0 0 0 0 0 0 0 0 0 0 0 0 0 127 0" result="hardAlpha"/>
<feOffset dy="4"/>
<feGaussianBlur stdDeviation="2"/>
<feComposite in2="hardAlpha" operator="out"/>
<feColorMatrix type="matrix" values="0 0 0 0 0 0 0 0 0 0 0 0 0 0 0 0 0 0 0.25 0"/>
<feBlend mode="normal" in2="effect1_backgroundBlur_1131_1876" result="effect2_dropShadow_1131_1876"/>
<feBlend mode="normal" in="SourceGraphic" in2="effect2_dropShadow_1131_1876" result="shape"/>
</filter>
<filter id="filter1_d_1131_1876" x="22" y="13" width="49" height="49" filterUnits="userSpaceOnUse" color-interpolation-filters="sRGB">
<feFlood flood-opacity="0" result="BackgroundImageFix"/>
<feColorMatrix in="SourceAlpha" type="matrix" values="0 0 0 0 0 0 0 0 0 0 0 0 0 0 0 0 0 0 127 0" result="hardAlpha"/>
<feMorphology radius="2" operator="erode" in="SourceAlpha" result="effect1_dropShadow_1131_1876"/>
<feOffset dy="2"/>
<feGaussianBlur stdDeviation="2"/>
<feComposite in2="hardAlpha" operator="out"/>
<feColorMatrix type="matrix" values="0 0 0 0 1 0 0 0 0 1 0 0 0 0 1 0 0 0 0.25 0"/>
<feBlend mode="normal" in2="BackgroundImageFix" result="effect1_dropShadow_1131_1876"/>
<feBlend mode="normal" in="SourceGraphic" in2="effect1_dropShadow_1131_1876" result="shape"/>
</filter>
</defs>
</svg>
